# xmcd CD database file
#
# Track frame offsets:
#	150
#	24305
#	43465
#	62882
#
# Disc length: 1150 seconds
#
# Revision: 0
# Processed by: cddbd v1.5PL3 Copyright (c) Steve Scherf et al.
# Submitted via: CDex 1.51
#
DISCID=33047c04
DTITLE=山本領平 - Believe Me
DYEAR=2004
DGENRE=JPop
TTITLE0=Believe Me
TTITLE1=Can't You See?
TTITLE2=What A Fool Believes
TTITLE3=Believe Me (less vocal)
EXTD=YEAR: 2004
EXTT0=
EXTT1=
EXTT2=
EXTT3=
PLAYORDER=
